<?xml version="1.0" standalone="no"?>
<!DOCTYPE svg PUBLIC "-//W3C//DTD SVG 20010904//EN"
 "http://www.w3.org/TR/2001/REC-SVG-20010904/DTD/svg10.dtd">
<svg version="1.0" xmlns="http://www.w3.org/2000/svg"
 width="260.000000pt" height="260.000000pt" viewBox="0 0 260.000000 260.000000"
 preserveAspectRatio="xMidYMid meet">
<metadata>
Created by potrace 1.11, written by Peter Selinger 2001-2013
</metadata>
<g transform="translate(0.000000,260.000000) scale(0.100000,-0.100000)"
fill="#000000" stroke="none">
<path d="M240 2593 c0 -5 4 -24 10 -43 9 -33 12 -35 50 -35 22 0 40 1 40 3 0
2 -14 8 -30 14 -22 7 -33 18 -37 39 -3 16 -12 29 -19 29 -8 0 -14 -3 -14 -7z"/>
<path d="M361 2588 c-1 -21 7 -22 29 -7 13 9 13 10 -2 6 -9 -3 -19 -1 -22 6
-2 7 -5 4 -5 -5z"/>
<path d="M140 2559 c0 -13 15 -18 38 -12 32 8 27 22 -8 21 -16 -1 -30 -5 -30
-9z"/>
<path d="M8 2533 c7 -3 16 -2 19 1 4 3 -2 6 -13 5 -11 0 -14 -3 -6 -6z"/>
<path d="M0 2488 c1 -31 1 -32 15 -13 17 21 15 37 -3 43 -8 2 -12 -8 -12 -30z"/>
<path d="M91 2494 c0 -11 3 -14 6 -6 3 7 2 16 -1 19 -3 4 -6 -2 -5 -13z"/>
<path d="M42 2445 c0 -16 2 -22 5 -12 2 9 2 23 0 30 -3 6 -5 -1 -5 -18z"/>
<path d="M274 2269 c-3 -6 -2 -15 3 -20 5 -5 9 -1 9 11 0 23 -2 24 -12 9z"/>
<path d="M1170 2135 c-86 -13 -226 -60 -277 -92 -71 -45 -170 -125 -188 -152
-11 -17 -30 -36 -43 -43 -21 -11 -26 -10 -38 7 -9 12 -12 30 -9 47 10 42 -3
66 -47 94 -38 24 -44 25 -79 14 -21 -7 -47 -22 -56 -33 -10 -10 -29 -24 -43
-30 -20 -8 -22 -11 -8 -14 9 -2 26 1 37 7 15 8 27 8 41 0 27 -14 25 -28 -7
-62 l-28 -29 50 26 c28 15 54 31 59 36 15 13 36 11 42 -5 3 -8 -8 -28 -25 -45
-16 -17 -37 -55 -47 -85 -16 -51 -19 -54 -58 -62 -49 -10 -215 -10 -348 -1
l-98 7 0 -416 0 -416 32 6 c18 3 98 9 178 13 125 5 150 4 178 -11 21 -11 32
-24 32 -38 0 -29 -48 -78 -77 -78 -24 0 -31 -14 -13 -25 6 -3 10 -24 10 -46 0
-21 5 -39 11 -39 6 0 8 -8 5 -17 -9 -35 -11 -102 -2 -105 5 -2 16 19 25 46 18
56 37 69 50 34 l9 -23 7 26 c10 39 73 94 128 112 l48 16 52 -47 c29 -26 80
-69 114 -95 35 -27 63 -52 63 -58 0 -5 7 -9 15 -9 8 0 15 -4 15 -9 0 -11 128
-66 200 -85 97 -27 249 -38 322 -25 24 4 77 17 118 29 41 12 83 22 93 21 9 0
17 4 17 10 0 5 8 9 18 9 9 1 35 9 57 20 22 11 44 19 48 20 33 1 247 177 247
204 1 18 32 50 63 64 49 22 117 13 117 -15 0 -8 -4 -11 -10 -8 -5 3 -10 2 -10
-3 0 -14 27 -23 46 -15 12 4 14 0 8 -23 -4 -16 -11 -32 -16 -35 -13 -8 12 -89
26 -89 20 1 45 26 51 52 6 23 4 26 -14 21 -18 -4 -21 -1 -21 22 0 24 3 27 25
23 21 -4 25 -1 25 18 0 15 6 24 16 24 9 0 14 6 11 13 -2 7 -15 11 -31 9 -20
-3 -35 5 -59 30 -18 18 -44 39 -59 47 -32 16 -33 20 -15 44 10 14 18 15 50 6
20 -5 42 -7 47 -4 6 4 9 1 8 -7 -2 -9 11 -13 49 -13 29 0 58 -6 65 -13 9 -9 8
-12 -7 -12 -11 0 -15 -3 -9 -9 5 -5 62 -11 127 -14 l117 -5 0 429 0 429 -57 0
c-59 -1 -238 -17 -283 -25 -94 -18 -87 -20 -93 17 -7 47 21 104 51 101 14 -2
22 3 22 12 0 8 -4 15 -10 15 -5 0 -10 7 -10 15 0 17 29 34 48 28 24 -9 12 37
-15 54 -16 9 -41 27 -56 40 -21 17 -41 23 -78 23 -55 0 -75 -8 -130 -51 -20
-16 -43 -29 -50 -29 -8 0 -36 18 -64 39 -63 50 -234 143 -300 164 -49 16 -228
38 -289 36 -17 -1 -69 -7 -116 -14z m-110 -345 c-20 -13 -43 -13 -35 0 3 6 16
10 28 10 18 0 19 -2 7 -10z m214 -81 c-31 -12 -40 -9 -20 6 10 8 24 11 29 8 6
-4 2 -10 -9 -14z m-1173 -276 c-9 -17 -10 -17 -16 0 -4 9 -4 25 0 35 6 16 7
16 16 0 7 -12 7 -24 0 -35z m2469 -3 c0 -18 -5 -25 -14 -22 -5 2 -278 5 -607
8 l-599 5 0 -130 c0 -89 4 -132 12 -137 8 -5 6 -10 -8 -14 -38 -14 -49 -2 -49
53 0 29 -1 92 -3 141 l-2 89 -45 -5 c-42 -5 -54 0 -38 15 11 12 1353 8 1353
-3z m-2196 -6 c9 -3 16 -17 16 -30 0 -29 -4 -30 -30 -4 -23 23 -93 27 -134 9
-71 -33 -53 -185 27 -222 74 -36 101 -19 95 57 -5 55 -4 56 22 56 26 0 26 -1
22 -62 -2 -35 -8 -67 -14 -73 -15 -17 -129 -11 -166 8 -45 24 -72 72 -72 127
0 59 32 106 90 132 19 8 123 10 144 2z m2134 -49 c3 -16 1 -18 -9 -7 -18 17
-56 15 -63 -3 -8 -23 2 -40 45 -74 46 -38 51 -70 14 -106 -36 -37 -95 -32 -95
8 0 19 1 19 18 4 23 -21 46 -22 61 -3 16 19 4 45 -41 87 -21 20 -38 45 -38 57
0 49 100 83 108 37z m-1513 0 c0 -5 -13 -9 -30 -10 -26 0 -30 -4 -33 -32 -3
-28 0 -32 24 -35 15 -2 29 -9 32 -17 3 -9 -1 -11 -14 -7 -30 9 -46 -8 -42 -45
3 -31 6 -34 36 -34 19 0 32 -5 32 -12 0 -9 -18 -13 -55 -13 l-56 0 2 110 2
111 51 -3 c28 -2 51 -7 51 -13z m1372 -2 c3 -7 -8 -11 -29 -10 -31 2 -33 0
-33 -33 0 -32 3 -35 33 -38 41 -4 38 -27 -4 -27 -27 0 -29 -2 -29 -40 0 -39 1
-40 38 -43 56 -5 34 -22 -29 -22 l-54 0 0 108 c0 60 3 112 7 116 11 11 96 2
100 -11z m-1819 -93 c34 -84 38 -100 24 -100 -9 0 -26 17 -37 37 -11 20 -28
38 -38 39 -19 3 -47 -31 -47 -58 0 -11 -8 -18 -20 -18 -19 0 -19 2 -7 23 8 12
27 57 42 100 15 42 31 77 35 77 4 0 26 -45 48 -100z m156 22 l33 -66 25 45
c14 24 33 58 41 74 19 37 22 30 40 -87 l14 -88 -24 0 c-19 0 -23 5 -24 33 -1
17 -4 43 -8 57 -7 23 -9 20 -33 -32 -15 -32 -31 -58 -35 -58 -4 0 -21 26 -38
57 l-30 57 -7 -44 c-5 -25 -6 -51 -3 -57 2 -8 -4 -13 -16 -13 -15 0 -18 5 -15
23 3 12 8 49 11 82 12 115 19 117 69 17z m736 38 l0 -40 51 0 51 0 -4 40 c-3
35 -1 40 17 40 19 0 20 -6 20 -100 0 -93 -1 -100 -20 -100 -18 0 -20 5 -17 50
l4 50 -50 0 c-49 0 -50 -1 -56 -34 -4 -18 -4 -41 0 -50 4 -11 1 -16 -14 -16
-19 0 -21 7 -24 100 -3 98 -3 100 20 100 19 0 22 -5 22 -40z m289 24 c23 -17
25 -43 6 -100 -5 -16 2 -30 29 -59 20 -21 36 -39 36 -40 0 -1 -11 0 -24 2 -13
3 -38 23 -56 44 -42 53 -62 52 -58 -3 2 -38 0 -43 -20 -46 -22 -3 -22 -2 -22
107 l0 111 43 0 c23 0 53 -7 66 -16z m235 -5 c15 -12 33 -33 39 -48 11 -25 12
-24 15 22 2 26 7 47 11 47 5 0 40 -34 79 -75 39 -41 73 -75 77 -75 4 0 5 34 3
75 -3 66 -1 75 15 75 15 0 17 -10 17 -79 0 -43 -3 -93 -6 -111 l-7 -32 -79 79
-79 78 2 -75 c2 -68 1 -75 -18 -78 -18 -3 -19 1 -15 51 2 30 0 57 -5 60 -5 3
-10 -4 -10 -15 -5 -55 -96 -101 -153 -78 -42 17 -60 46 -60 96 0 31 7 51 26
73 22 27 32 31 74 31 33 0 55 -6 74 -21z m-741 -37 c-26 -4 -33 -42 -8 -42 8
0 15 -4 15 -10 0 -5 -7 -10 -15 -10 -10 0 -15 -10 -15 -30 0 -20 -5 -30 -15
-30 -9 0 -15 9 -15 21 l0 20 -26 -20 c-35 -27 -59 -26 -89 4 -31 31 -31 49 0
80 29 30 68 32 95 5 19 -19 20 -19 20 -2 0 26 6 29 42 23 26 -4 28 -6 11 -9z
m-1118 -222 c3 -5 1 -10 -4 -10 -6 0 -11 5 -11 10 0 6 2 10 4 10 3 0 8 -4 11
-10z m1278 -251 c-51 -34 -66 -39 -77 -30 -21 18 -8 41 23 41 14 1 37 7 51 15
14 8 34 14 45 15 13 0 -2 -15 -42 -41z m-368 -59 c3 -5 -1 -10 -9 -10 -8 0
-18 5 -21 10 -3 6 1 10 9 10 8 0 18 -4 21 -10z m601 -15 c-11 -8 -31 -15 -44
-15 -21 0 -22 2 -12 15 7 8 27 15 44 15 29 -1 30 -1 12 -15z m-476 -19 c0 -2
-7 -7 -16 -10 -8 -3 -12 -2 -9 4 6 10 25 14 25 6z"/>
<path d="M487 1313 c-13 -12 -7 -43 8 -43 8 0 15 6 15 13 0 18 -15 38 -23 30z"/>
<path d="M1660 1320 c0 -28 5 -43 16 -47 21 -8 35 15 32 52 -2 23 -9 31 -25
33 -21 3 -23 -1 -23 -38z"/>
<path d="M1842 1348 c-20 -25 -23 -75 -8 -112 24 -58 36 -44 36 44 0 77 -7 94
-28 68z"/>
<path d="M1913 1344 c-5 -10 -9 -43 -7 -71 2 -41 -1 -53 -12 -53 -21 0 -17
-17 5 -23 11 -3 29 2 40 10 28 19 29 100 2 134 -18 22 -19 22 -28 3z"/>
<path d="M1882 1330 c0 -14 2 -19 5 -12 2 6 2 18 0 25 -3 6 -5 1 -5 -13z"/>
<path d="M1064 1286 c-3 -14 -1 -33 5 -43 8 -15 10 -10 11 25 0 47 -6 55 -16
18z"/>
<path d="M2564 1765 c24 -18 39 -20 34 -2 -3 6 -15 13 -29 15 -23 2 -23 2 -5
-13z"/>
<path d="M2350 711 c0 -5 5 -13 10 -16 6 -3 10 -2 10 4 0 5 -4 13 -10 16 -5 3
-10 2 -10 -4z"/>
<path d="M2520 566 c0 -2 7 -7 16 -10 8 -3 12 -2 9 4 -6 10 -25 14 -25 6z"/>
<path d="M2348 453 c6 -2 18 -2 25 0 6 3 1 5 -13 5 -14 0 -19 -2 -12 -5z"/>
<path d="M2514 326 c-16 -13 -17 -17 -5 -28 12 -11 13 -11 6 0 -4 8 0 19 11
27 11 8 16 15 13 15 -3 0 -14 -6 -25 -14z"/>
<path d="M2561 321 c-7 -5 -11 -13 -7 -19 3 -6 -3 -17 -15 -25 -13 -9 -16 -17
-10 -22 6 -3 14 1 17 9 3 9 10 13 15 10 5 -3 9 4 9 15 0 11 8 25 18 30 13 8
14 10 2 11 -8 0 -21 -4 -29 -9z"/>
<path d="M2447 299 c7 -7 15 -10 18 -7 3 3 -2 9 -12 12 -14 6 -15 5 -6 -5z"/>
<path d="M2161 281 c-8 -5 -9 -11 -3 -15 5 -3 12 1 16 9 6 17 6 18 -13 6z"/>
<path d="M2420 265 c0 -8 29 -12 39 -5 9 5 4 8 -13 8 -14 0 -26 -2 -26 -3z"/>
<path d="M2500 240 c8 -5 20 -10 25 -10 6 0 3 5 -5 10 -8 5 -19 10 -25 10 -5
0 -3 -5 5 -10z"/>
<path d="M2580 230 c0 -5 -7 -10 -15 -10 -10 0 -15 -9 -14 -27 l1 -28 7 25 c7
24 7 24 18 5 6 -11 15 -17 19 -13 4 4 2 14 -4 21 -9 10 -8 17 0 25 9 9 9 12 0
12 -7 0 -12 -4 -12 -10z"/>
<path d="M2250 136 c0 -2 7 -7 16 -10 8 -3 12 -2 9 4 -6 10 -25 14 -25 6z"/>
<path d="M2528 93 c-10 -9 -33 -17 -53 -17 -29 -1 -32 -3 -20 -12 21 -16 48
-8 76 22 25 27 22 33 -3 7z"/>
<path d="M2247 60 c-3 -11 -1 -22 3 -25 14 -9 40 6 40 23 0 8 -3 12 -7 9 -3
-4 -12 -2 -18 3 -9 8 -14 5 -18 -10z"/>
</g>
</svg>
